<svg width="16" height="14" viewBox="0 0 16 14" fill="none" xmlns="http://www.w3.org/2000/svg">
<rect x="1" y="3.58789" width="14" height="9.41276" rx="1" stroke="#717B9E" stroke-width="1.25" stroke-linecap="round" stroke-linejoin="round"/>
<path fill-rule="evenodd" clip-rule="evenodd" d="M1 4.58789C1 4.03561 1.44772 3.58789 2 3.58789H14C14.5523 3.58789 15 4.03561 15 4.58789V5.89198C15 6.34369 14.6981 6.73752 14.2569 6.83472C13.1022 7.08915 10.7436 7.5275 8.2 7.5275C5.61932 7.5275 3.0217 7.07628 1.76982 6.82372C1.31677 6.73231 1 6.33164 1 5.86946V4.58789Z" stroke="#717B9E" stroke-width="1.25" stroke-linecap="round" stroke-linejoin="round"/>
<path d="M10.7992 3.854V2C10.7992 1.44771 10.3515 1 9.79922 1L6.19922 1C5.64693 1 5.19922 1.44772 5.19922 2V3.854" stroke="#717B9E" stroke-width="1.25" stroke-linejoin="round"/>
</svg>
