<svg width="38" height="38" viewBox="0 0 38 38" fill="none" xmlns="http://www.w3.org/2000/svg">
<rect width="38" height="38" rx="19" fill="#F7F8FF"/>
<path d="M19.6522 26L16 19.5294V18.6667H16.4251C17.1079 18.6667 17.6812 18.6013 18.1449 18.4706C18.6216 18.3399 18.9952 18.1242 19.2657 17.8235C19.5362 17.5229 19.6973 17.1111 19.7488 16.5882H16V15.3333H19.7295C19.6393 14.8497 19.4589 14.4575 19.1884 14.1569C18.9179 13.8431 18.5507 13.6144 18.087 13.4706C17.6361 13.3268 17.0821 13.2549 16.4251 13.2549H16V12H24V13.2549H20.3478C20.6441 13.5033 20.8889 13.7974 21.0821 14.1373C21.2754 14.4771 21.3977 14.8758 21.4493 15.3333H24V16.5882H21.4879C21.3977 17.5425 21.037 18.2876 20.4058 18.8235C19.7874 19.3464 18.963 19.6797 17.9324 19.8235L21.6232 26H19.6522Z" fill="#121224"/>
</svg>