<?xml version="1.0" encoding="UTF-8"?>
<svg width="16px" height="16px" version="1.1" viewBox="0 0 1200 1200" xmlns="http://www.w3.org/2000/svg">
 <path d="m910.64 653.69c-45.902-52.75-100.16-41.688-162.71-99.805-31.031-28.836-28.078-208.3-28.078-208.3s-2.3281-155.61 29.543-187.49c22.031-21.984 60.719-27.672 83.258-49.801 0.21484-0.15625 0.35938-0.30078 0.51562-0.50391 4.8711-4.8711 8.8203-10.609 11.734-17.41 0.35938-0.71875 0.75781-1.2734 1.0078-1.9805 1.9805-5.1836 3.0469-11.27 3.6133-17.82 0.15625-1.6797 0.96094-3.0977 0.96094-4.7773 0-0.30078-0.15625-0.55078-0.20313-0.86328 0.046876-0.45703 0.20313-0.80469 0.20313-1.2617 0-1.1172-0.85156-1.6797-0.96094-2.6992-2.6055-30.668-27.531-54.98-58.852-54.98h-374.62c-31.32 0-56.258 24.312-58.836 54.984-0.10937 1.0078-0.97266 1.5703-0.97266 2.6992 0 0.45703 0.15625 0.80469 0.20312 1.2617-0.046875 0.3125-0.20312 0.5625-0.20312 0.86328 0 1.6797 0.81641 3.0977 0.97266 4.7773 0.55078 6.5391 1.6211 12.637 3.6016 17.82 0.25391 0.70703 0.66016 1.2617 1.0195 1.9805 2.8906 6.8047 6.8516 12.539 11.723 17.41 0.15625 0.20312 0.30078 0.34766 0.50391 0.50391 22.535 22.141 61.223 27.816 83.258 49.801 31.883 31.883 29.543 187.49 29.543 187.49s2.9531 179.46-28.078 208.3c-62.531 58.113-116.8 47.051-162.68 99.801-32.496 37.367-26.543 103.97-26.543 103.97h308.05v271.45l23.039 164.89h5.4844l23.051-164.89v-271.45h307.99s5.9414-66.602-26.543-103.97z"/>
</svg>
