<svg width="38" height="38" viewBox="0 0 38 38" fill="none" xmlns="http://www.w3.org/2000/svg">
<rect width="38" height="38" rx="19" fill="#F7F8FF"/>
<path d="M22.6151 16.9256L15.4062 12.7686" stroke="#121224" stroke-linecap="round" stroke-linejoin="round"/>
<path d="M26.2145 22.2121V15.8042C26.2142 15.5233 26.1401 15.2474 25.9995 15.0042C25.8589 14.761 25.6568 14.559 25.4135 14.4185L19.8067 11.2146C19.5632 11.074 19.2869 11 19.0057 11C18.7245 11 18.4483 11.074 18.2047 11.2146L12.5979 14.4185C12.3546 14.559 12.1525 14.761 12.0119 15.0042C11.8713 15.2474 11.7972 15.5233 11.7969 15.8042V22.2121C11.7972 22.493 11.8713 22.7689 12.0119 23.0121C12.1525 23.2554 12.3546 23.4573 12.5979 23.5978L18.2047 26.8017C18.4483 26.9423 18.7245 27.0163 19.0057 27.0163C19.2869 27.0163 19.5632 26.9423 19.8067 26.8017L25.4135 23.5978C25.6568 23.4573 25.8589 23.2554 25.9995 23.0121C26.1401 22.7689 26.2142 22.493 26.2145 22.2121Z" stroke="#121224" stroke-linecap="round" stroke-linejoin="round"/>
<path d="M12.0156 14.9707L19.0082 19.0157L26.0008 14.9707" stroke="#121224" stroke-linecap="round" stroke-linejoin="round"/>
<path d="M19 27.0817V19.0078" stroke="#121224" stroke-linecap="round" stroke-linejoin="round"/>
</svg>